<svg width="800" height="566" viewBox="0 0 800 566" fill="none" xmlns="http://www.w3.org/2000/svg">
<rect x="0.5" y="0.5" width="799" height="399" fill="#7986CB" stroke="black"/>
<rect x="0.5" y="456.5" width="799" height="109" fill="#7CB342" stroke="black"/>
<path d="M310.117 519.023L319.867 490.875H324.789L312.133 525H308.148L295.516 490.875H300.414L310.117 519.023ZM333.414 525H329.078V499.641H333.414V525ZM328.727 492.914C328.727 492.211 328.938 491.617 329.359 491.133C329.797 490.648 330.438 490.406 331.281 490.406C332.125 490.406 332.766 490.648 333.203 491.133C333.641 491.617 333.859 492.211 333.859 492.914C333.859 493.617 333.641 494.203 333.203 494.672C332.766 495.141 332.125 495.375 331.281 495.375C330.438 495.375 329.797 495.141 329.359 494.672C328.938 494.203 328.727 493.617 328.727 492.914ZM350.898 525.469C347.461 525.469 344.664 524.344 342.508 522.094C340.352 519.828 339.273 516.805 339.273 513.023V512.227C339.273 509.711 339.75 507.469 340.703 505.5C341.672 503.516 343.016 501.969 344.734 500.859C346.469 499.734 348.344 499.172 350.359 499.172C353.656 499.172 356.219 500.258 358.047 502.43C359.875 504.602 360.789 507.711 360.789 511.758V513.562H343.609C343.672 516.062 344.398 518.086 345.789 519.633C347.195 521.164 348.977 521.93 351.133 521.93C352.664 521.93 353.961 521.617 355.023 520.992C356.086 520.367 357.016 519.539 357.812 518.508L360.461 520.57C358.336 523.836 355.148 525.469 350.898 525.469ZM350.359 502.734C348.609 502.734 347.141 503.375 345.953 504.656C344.766 505.922 344.031 507.703 343.75 510H356.453V509.672C356.328 507.469 355.734 505.766 354.672 504.562C353.609 503.344 352.172 502.734 350.359 502.734ZM388.281 519.023L393.156 499.641H397.492L390.109 525H386.594L380.43 505.781L374.43 525H370.914L363.555 499.641H367.867L372.859 518.625L378.766 499.641H382.258L388.281 519.023ZM408.414 490.875L419.57 518.719L430.727 490.875H436.562V525H432.062V511.711L432.484 497.367L421.281 525H417.836L406.656 497.438L407.102 511.711V525H402.602V490.875H408.414ZM442.68 512.086C442.68 509.602 443.164 507.367 444.133 505.383C445.117 503.398 446.477 501.867 448.211 500.789C449.961 499.711 451.953 499.172 454.188 499.172C457.641 499.172 460.43 500.367 462.555 502.758C464.695 505.148 465.766 508.328 465.766 512.297V512.602C465.766 515.07 465.289 517.289 464.336 519.258C463.398 521.211 462.047 522.734 460.281 523.828C458.531 524.922 456.516 525.469 454.234 525.469C450.797 525.469 448.008 524.273 445.867 521.883C443.742 519.492 442.68 516.328 442.68 512.391V512.086ZM447.039 512.602C447.039 515.414 447.688 517.672 448.984 519.375C450.297 521.078 452.047 521.93 454.234 521.93C456.438 521.93 458.188 521.07 459.484 519.352C460.781 517.617 461.43 515.195 461.43 512.086C461.43 509.305 460.766 507.055 459.438 505.336C458.125 503.602 456.375 502.734 454.188 502.734C452.047 502.734 450.32 503.586 449.008 505.289C447.695 506.992 447.039 509.43 447.039 512.602ZM470.148 512.109C470.148 508.219 471.07 505.094 472.914 502.734C474.758 500.359 477.172 499.172 480.156 499.172C483.125 499.172 485.477 500.188 487.211 502.219V489H491.547V525H487.562L487.352 522.281C485.617 524.406 483.203 525.469 480.109 525.469C477.172 525.469 474.773 524.266 472.914 521.859C471.07 519.453 470.148 516.312 470.148 512.438V512.109ZM474.484 512.602C474.484 515.477 475.078 517.727 476.266 519.352C477.453 520.977 479.094 521.789 481.188 521.789C483.938 521.789 485.945 520.555 487.211 518.086V506.438C485.914 504.047 483.922 502.852 481.234 502.852C479.109 502.852 477.453 503.672 476.266 505.312C475.078 506.953 474.484 509.383 474.484 512.602ZM508.82 525.469C505.383 525.469 502.586 524.344 500.43 522.094C498.273 519.828 497.195 516.805 497.195 513.023V512.227C497.195 509.711 497.672 507.469 498.625 505.5C499.594 503.516 500.938 501.969 502.656 500.859C504.391 499.734 506.266 499.172 508.281 499.172C511.578 499.172 514.141 500.258 515.969 502.43C517.797 504.602 518.711 507.711 518.711 511.758V513.562H501.531C501.594 516.062 502.32 518.086 503.711 519.633C505.117 521.164 506.898 521.93 509.055 521.93C510.586 521.93 511.883 521.617 512.945 520.992C514.008 520.367 514.938 519.539 515.734 518.508L518.383 520.57C516.258 523.836 513.07 525.469 508.82 525.469ZM508.281 502.734C506.531 502.734 505.062 503.375 503.875 504.656C502.688 505.922 501.953 507.703 501.672 510H514.375V509.672C514.25 507.469 513.656 505.766 512.594 504.562C511.531 503.344 510.094 502.734 508.281 502.734ZM528.461 525H524.125V489H528.461V525Z" fill="black"/>
<rect x="40.5" y="104.5" width="719" height="263" fill="#FFA726" stroke="black"/>
<path d="M213.719 65.0234L223.469 36.875H228.391L215.734 71H211.75L199.117 36.875H204.016L213.719 65.0234ZM237.016 71H232.68V45.6406H237.016V71ZM232.328 38.9141C232.328 38.2109 232.539 37.6172 232.961 37.1328C233.398 36.6484 234.039 36.4062 234.883 36.4062C235.727 36.4062 236.367 36.6484 236.805 37.1328C237.242 37.6172 237.461 38.2109 237.461 38.9141C237.461 39.6172 237.242 40.2031 236.805 40.6719C236.367 41.1406 235.727 41.375 234.883 41.375C234.039 41.375 233.398 41.1406 232.961 40.6719C232.539 40.2031 232.328 39.6172 232.328 38.9141ZM254.5 71.4688C251.062 71.4688 248.266 70.3438 246.109 68.0938C243.953 65.8281 242.875 62.8047 242.875 59.0234V58.2266C242.875 55.7109 243.352 53.4688 244.305 51.5C245.273 49.5156 246.617 47.9688 248.336 46.8594C250.07 45.7344 251.945 45.1719 253.961 45.1719C257.258 45.1719 259.82 46.2578 261.648 48.4297C263.477 50.6016 264.391 53.7109 264.391 57.7578V59.5625H247.211C247.273 62.0625 248 64.0859 249.391 65.6328C250.797 67.1641 252.578 67.9297 254.734 67.9297C256.266 67.9297 257.562 67.6172 258.625 66.9922C259.688 66.3672 260.617 65.5391 261.414 64.5078L264.062 66.5703C261.938 69.8359 258.75 71.4688 254.5 71.4688ZM253.961 48.7344C252.211 48.7344 250.742 49.375 249.555 50.6562C248.367 51.9219 247.633 53.7031 247.352 56H260.055V55.6719C259.93 53.4688 259.336 51.7656 258.273 50.5625C257.211 49.3438 255.773 48.7344 253.961 48.7344ZM291.883 65.0234L296.758 45.6406H301.094L293.711 71H290.195L284.031 51.7812L278.031 71H274.516L267.156 45.6406H271.469L276.461 64.625L282.367 45.6406H285.859L291.883 65.0234ZM312.016 36.875L323.172 64.7188L334.328 36.875H340.164V71H335.664V57.7109L336.086 43.3672L324.883 71H321.438L310.258 43.4375L310.703 57.7109V71H306.203V36.875H312.016ZM346.281 58.0859C346.281 55.6016 346.766 53.3672 347.734 51.3828C348.719 49.3984 350.078 47.8672 351.812 46.7891C353.562 45.7109 355.555 45.1719 357.789 45.1719C361.242 45.1719 364.031 46.3672 366.156 48.7578C368.297 51.1484 369.367 54.3281 369.367 58.2969V58.6016C369.367 61.0703 368.891 63.2891 367.938 65.2578C367 67.2109 365.648 68.7344 363.883 69.8281C362.133 70.9219 360.117 71.4688 357.836 71.4688C354.398 71.4688 351.609 70.2734 349.469 67.8828C347.344 65.4922 346.281 62.3281 346.281 58.3906V58.0859ZM350.641 58.6016C350.641 61.4141 351.289 63.6719 352.586 65.375C353.898 67.0781 355.648 67.9297 357.836 67.9297C360.039 67.9297 361.789 67.0703 363.086 65.3516C364.383 63.6172 365.031 61.1953 365.031 58.0859C365.031 55.3047 364.367 53.0547 363.039 51.3359C361.727 49.6016 359.977 48.7344 357.789 48.7344C355.648 48.7344 353.922 49.5859 352.609 51.2891C351.297 52.9922 350.641 55.4297 350.641 58.6016ZM373.75 58.1094C373.75 54.2188 374.672 51.0938 376.516 48.7344C378.359 46.3594 380.773 45.1719 383.758 45.1719C386.727 45.1719 389.078 46.1875 390.812 48.2188V35H395.148V71H391.164L390.953 68.2812C389.219 70.4062 386.805 71.4688 383.711 71.4688C380.773 71.4688 378.375 70.2656 376.516 67.8594C374.672 65.4531 373.75 62.3125 373.75 58.4375V58.1094ZM378.086 58.6016C378.086 61.4766 378.68 63.7266 379.867 65.3516C381.055 66.9766 382.695 67.7891 384.789 67.7891C387.539 67.7891 389.547 66.5547 390.812 64.0859V52.4375C389.516 50.0469 387.523 48.8516 384.836 48.8516C382.711 48.8516 381.055 49.6719 379.867 51.3125C378.68 52.9531 378.086 55.3828 378.086 58.6016ZM412.422 71.4688C408.984 71.4688 406.188 70.3438 404.031 68.0938C401.875 65.8281 400.797 62.8047 400.797 59.0234V58.2266C400.797 55.7109 401.273 53.4688 402.227 51.5C403.195 49.5156 404.539 47.9688 406.258 46.8594C407.992 45.7344 409.867 45.1719 411.883 45.1719C415.18 45.1719 417.742 46.2578 419.57 48.4297C421.398 50.6016 422.312 53.7109 422.312 57.7578V59.5625H405.133C405.195 62.0625 405.922 64.0859 407.312 65.6328C408.719 67.1641 410.5 67.9297 412.656 67.9297C414.188 67.9297 415.484 67.6172 416.547 66.9922C417.609 66.3672 418.539 65.5391 419.336 64.5078L421.984 66.5703C419.859 69.8359 416.672 71.4688 412.422 71.4688ZM411.883 48.7344C410.133 48.7344 408.664 49.375 407.477 50.6562C406.289 51.9219 405.555 53.7031 405.273 56H417.977V55.6719C417.852 53.4688 417.258 51.7656 416.195 50.5625C415.133 49.3438 413.695 48.7344 411.883 48.7344ZM432.062 71H427.727V35H432.062V71ZM464.805 60.1719C464.383 63.7812 463.047 66.5703 460.797 68.5391C458.562 70.4922 455.586 71.4688 451.867 71.4688C447.836 71.4688 444.602 70.0234 442.164 67.1328C439.742 64.2422 438.531 60.375 438.531 55.5312V52.25C438.531 49.0781 439.094 46.2891 440.219 43.8828C441.359 41.4766 442.969 39.6328 445.047 38.3516C447.125 37.0547 449.531 36.4062 452.266 36.4062C455.891 36.4062 458.797 37.4219 460.984 39.4531C463.172 41.4688 464.445 44.2656 464.805 47.8438H460.281C459.891 45.125 459.039 43.1562 457.727 41.9375C456.43 40.7188 454.609 40.1094 452.266 40.1094C449.391 40.1094 447.133 41.1719 445.492 43.2969C443.867 45.4219 443.055 48.4453 443.055 52.3672V55.6719C443.055 59.375 443.828 62.3203 445.375 64.5078C446.922 66.6953 449.086 67.7891 451.867 67.7891C454.367 67.7891 456.281 67.2266 457.609 66.1016C458.953 64.9609 459.844 62.9844 460.281 60.1719H464.805ZM469.141 58.0859C469.141 55.6016 469.625 53.3672 470.594 51.3828C471.578 49.3984 472.938 47.8672 474.672 46.7891C476.422 45.7109 478.414 45.1719 480.648 45.1719C484.102 45.1719 486.891 46.3672 489.016 48.7578C491.156 51.1484 492.227 54.3281 492.227 58.2969V58.6016C492.227 61.0703 491.75 63.2891 490.797 65.2578C489.859 67.2109 488.508 68.7344 486.742 69.8281C484.992 70.9219 482.977 71.4688 480.695 71.4688C477.258 71.4688 474.469 70.2734 472.328 67.8828C470.203 65.4922 469.141 62.3281 469.141 58.3906V58.0859ZM473.5 58.6016C473.5 61.4141 474.148 63.6719 475.445 65.375C476.758 67.0781 478.508 67.9297 480.695 67.9297C482.898 67.9297 484.648 67.0703 485.945 65.3516C487.242 63.6172 487.891 61.1953 487.891 58.0859C487.891 55.3047 487.227 53.0547 485.898 51.3359C484.586 49.6016 482.836 48.7344 480.648 48.7344C478.508 48.7344 476.781 49.5859 475.469 51.2891C474.156 52.9922 473.5 55.4297 473.5 58.6016ZM501.766 45.6406L501.906 48.8281C503.844 46.3906 506.375 45.1719 509.5 45.1719C514.859 45.1719 517.562 48.1953 517.609 54.2422V71H513.273V54.2188C513.258 52.3906 512.836 51.0391 512.008 50.1641C511.195 49.2891 509.922 48.8516 508.188 48.8516C506.781 48.8516 505.547 49.2266 504.484 49.9766C503.422 50.7266 502.594 51.7109 502 52.9297V71H497.664V45.6406H501.766ZM530.031 39.5V45.6406H534.766V48.9922H530.031V64.7188C530.031 65.7344 530.242 66.5 530.664 67.0156C531.086 67.5156 531.805 67.7656 532.82 67.7656C533.32 67.7656 534.008 67.6719 534.883 67.4844V71C533.742 71.3125 532.633 71.4688 531.555 71.4688C529.617 71.4688 528.156 70.8828 527.172 69.7109C526.188 68.5391 525.695 66.875 525.695 64.7188V48.9922H521.078V45.6406H525.695V39.5H530.031ZM550.375 71.4688C546.938 71.4688 544.141 70.3438 541.984 68.0938C539.828 65.8281 538.75 62.8047 538.75 59.0234V58.2266C538.75 55.7109 539.227 53.4688 540.18 51.5C541.148 49.5156 542.492 47.9688 544.211 46.8594C545.945 45.7344 547.82 45.1719 549.836 45.1719C553.133 45.1719 555.695 46.2578 557.523 48.4297C559.352 50.6016 560.266 53.7109 560.266 57.7578V59.5625H543.086C543.148 62.0625 543.875 64.0859 545.266 65.6328C546.672 67.1641 548.453 67.9297 550.609 67.9297C552.141 67.9297 553.438 67.6172 554.5 66.9922C555.562 66.3672 556.492 65.5391 557.289 64.5078L559.938 66.5703C557.812 69.8359 554.625 71.4688 550.375 71.4688ZM549.836 48.7344C548.086 48.7344 546.617 49.375 545.43 50.6562C544.242 51.9219 543.508 53.7031 543.227 56H555.93V55.6719C555.805 53.4688 555.211 51.7656 554.148 50.5625C553.086 49.3438 551.648 48.7344 549.836 48.7344ZM573.812 54.8984L579.438 45.6406H584.5L576.203 58.1797L584.758 71H579.742L573.883 61.5078L568.023 71H562.984L571.539 58.1797L563.242 45.6406H568.258L573.812 54.8984ZM595 39.5V45.6406H599.734V48.9922H595V64.7188C595 65.7344 595.211 66.5 595.633 67.0156C596.055 67.5156 596.773 67.7656 597.789 67.7656C598.289 67.7656 598.977 67.6719 599.852 67.4844V71C598.711 71.3125 597.602 71.4688 596.523 71.4688C594.586 71.4688 593.125 70.8828 592.141 69.7109C591.156 68.5391 590.664 66.875 590.664 64.7188V48.9922H586.047V45.6406H590.664V39.5H595Z" fill="black"/>
<path d="M251.641 149.518L258.953 128.406H262.645L253.152 154H250.164L240.689 128.406H244.363L251.641 149.518ZM269.113 154H265.861V134.98H269.113V154ZM265.598 129.936C265.598 129.408 265.756 128.963 266.072 128.6C266.4 128.236 266.881 128.055 267.514 128.055C268.146 128.055 268.627 128.236 268.955 128.6C269.283 128.963 269.447 129.408 269.447 129.936C269.447 130.463 269.283 130.902 268.955 131.254C268.627 131.605 268.146 131.781 267.514 131.781C266.881 131.781 266.4 131.605 266.072 131.254C265.756 130.902 265.598 130.463 265.598 129.936ZM282.227 154.352C279.648 154.352 277.551 153.508 275.934 151.82C274.316 150.121 273.508 147.854 273.508 145.018V144.42C273.508 142.533 273.865 140.852 274.58 139.375C275.307 137.887 276.314 136.727 277.604 135.895C278.904 135.051 280.311 134.629 281.822 134.629C284.295 134.629 286.217 135.443 287.588 137.072C288.959 138.701 289.645 141.033 289.645 144.068V145.422H276.76C276.807 147.297 277.352 148.814 278.395 149.975C279.449 151.123 280.785 151.697 282.402 151.697C283.551 151.697 284.523 151.463 285.32 150.994C286.117 150.525 286.814 149.904 287.412 149.131L289.398 150.678C287.805 153.127 285.414 154.352 282.227 154.352ZM281.822 137.301C280.51 137.301 279.408 137.781 278.518 138.742C277.627 139.691 277.076 141.027 276.865 142.75H286.393V142.504C286.299 140.852 285.854 139.574 285.057 138.672C284.26 137.758 283.182 137.301 281.822 137.301ZM310.264 149.518L313.92 134.98H317.172L311.635 154H308.998L304.375 139.586L299.875 154H297.238L291.719 134.98H294.953L298.697 149.219L303.127 134.98H305.746L310.264 149.518ZM325.363 128.406L333.73 149.289L342.098 128.406H346.475V154H343.1V144.033L343.416 133.275L335.014 154H332.43L324.045 133.328L324.379 144.033V154H321.004V128.406H325.363ZM351.062 144.314C351.062 142.451 351.426 140.775 352.152 139.287C352.891 137.799 353.91 136.65 355.211 135.842C356.523 135.033 358.018 134.629 359.693 134.629C362.283 134.629 364.375 135.525 365.969 137.318C367.574 139.111 368.377 141.496 368.377 144.473V144.701C368.377 146.553 368.02 148.217 367.305 149.693C366.602 151.158 365.588 152.301 364.264 153.121C362.951 153.941 361.439 154.352 359.729 154.352C357.15 154.352 355.059 153.455 353.453 151.662C351.859 149.869 351.062 147.496 351.062 144.543V144.314ZM354.332 144.701C354.332 146.811 354.818 148.504 355.791 149.781C356.775 151.059 358.088 151.697 359.729 151.697C361.381 151.697 362.693 151.053 363.666 149.764C364.639 148.463 365.125 146.646 365.125 144.314C365.125 142.229 364.627 140.541 363.631 139.252C362.646 137.951 361.334 137.301 359.693 137.301C358.088 137.301 356.793 137.939 355.809 139.217C354.824 140.494 354.332 142.322 354.332 144.701ZM371.664 144.332C371.664 141.414 372.355 139.07 373.738 137.301C375.121 135.52 376.932 134.629 379.17 134.629C381.396 134.629 383.16 135.391 384.461 136.914V127H387.713V154H384.725L384.566 151.961C383.266 153.555 381.455 154.352 379.135 154.352C376.932 154.352 375.133 153.449 373.738 151.645C372.355 149.84 371.664 147.484 371.664 144.578V144.332ZM374.916 144.701C374.916 146.857 375.361 148.545 376.252 149.764C377.143 150.982 378.373 151.592 379.943 151.592C382.006 151.592 383.512 150.666 384.461 148.814V140.078C383.488 138.285 381.994 137.389 379.979 137.389C378.385 137.389 377.143 138.004 376.252 139.234C375.361 140.465 374.916 142.287 374.916 144.701ZM400.668 154.352C398.09 154.352 395.992 153.508 394.375 151.82C392.758 150.121 391.949 147.854 391.949 145.018V144.42C391.949 142.533 392.307 140.852 393.021 139.375C393.748 137.887 394.756 136.727 396.045 135.895C397.346 135.051 398.752 134.629 400.264 134.629C402.736 134.629 404.658 135.443 406.029 137.072C407.4 138.701 408.086 141.033 408.086 144.068V145.422H395.201C395.248 147.297 395.793 148.814 396.836 149.975C397.891 151.123 399.227 151.697 400.844 151.697C401.992 151.697 402.965 151.463 403.762 150.994C404.559 150.525 405.256 149.904 405.854 149.131L407.84 150.678C406.246 153.127 403.855 154.352 400.668 154.352ZM400.264 137.301C398.951 137.301 397.85 137.781 396.959 138.742C396.068 139.691 395.518 141.027 395.307 142.75H404.834V142.504C404.74 140.852 404.295 139.574 403.498 138.672C402.701 137.758 401.623 137.301 400.264 137.301ZM415.398 154H412.146V127H415.398V154ZM424.521 151.24H436.65V154H421.129V128.406H424.521V151.24ZM443.523 154H440.271V134.98H443.523V154ZM440.008 129.936C440.008 129.408 440.166 128.963 440.482 128.6C440.811 128.236 441.291 128.055 441.924 128.055C442.557 128.055 443.037 128.236 443.365 128.6C443.693 128.963 443.857 129.408 443.857 129.936C443.857 130.463 443.693 130.902 443.365 131.254C443.037 131.605 442.557 131.781 441.924 131.781C441.291 131.781 440.811 131.605 440.482 131.254C440.166 130.902 440.008 130.463 440.008 129.936ZM450.344 154V137.494H447.338V134.98H450.344V133.029C450.344 130.99 450.889 129.414 451.979 128.301C453.068 127.188 454.609 126.631 456.602 126.631C457.352 126.631 458.096 126.73 458.834 126.93L458.658 129.566C458.107 129.461 457.521 129.408 456.9 129.408C455.846 129.408 455.031 129.719 454.457 130.34C453.883 130.949 453.596 131.828 453.596 132.977V134.98H457.656V137.494H453.596V154H450.344ZM468.73 154.352C466.152 154.352 464.055 153.508 462.438 151.82C460.82 150.121 460.012 147.854 460.012 145.018V144.42C460.012 142.533 460.369 140.852 461.084 139.375C461.811 137.887 462.818 136.727 464.107 135.895C465.408 135.051 466.814 134.629 468.326 134.629C470.799 134.629 472.721 135.443 474.092 137.072C475.463 138.701 476.148 141.033 476.148 144.068V145.422H463.264C463.311 147.297 463.855 148.814 464.898 149.975C465.953 151.123 467.289 151.697 468.906 151.697C470.055 151.697 471.027 151.463 471.824 150.994C472.621 150.525 473.318 149.904 473.916 149.131L475.902 150.678C474.309 153.127 471.918 154.352 468.73 154.352ZM468.326 137.301C467.014 137.301 465.912 137.781 465.021 138.742C464.131 139.691 463.58 141.027 463.369 142.75H472.896V142.504C472.803 140.852 472.357 139.574 471.561 138.672C470.764 137.758 469.686 137.301 468.326 137.301ZM487.557 151.697C488.717 151.697 489.73 151.346 490.598 150.643C491.465 149.939 491.945 149.061 492.039 148.006H495.115C495.057 149.096 494.682 150.133 493.99 151.117C493.299 152.102 492.373 152.887 491.213 153.473C490.064 154.059 488.846 154.352 487.557 154.352C484.967 154.352 482.904 153.49 481.369 151.768C479.846 150.033 479.084 147.666 479.084 144.666V144.121C479.084 142.27 479.424 140.623 480.104 139.182C480.783 137.74 481.756 136.621 483.021 135.824C484.299 135.027 485.805 134.629 487.539 134.629C489.672 134.629 491.441 135.268 492.848 136.545C494.266 137.822 495.021 139.48 495.115 141.52H492.039C491.945 140.289 491.477 139.281 490.633 138.496C489.801 137.699 488.77 137.301 487.539 137.301C485.887 137.301 484.604 137.898 483.689 139.094C482.787 140.277 482.336 141.994 482.336 144.244V144.859C482.336 147.051 482.787 148.738 483.689 149.922C484.592 151.105 485.881 151.697 487.557 151.697ZM504.994 149.236L509.424 134.98H512.904L505.258 156.936C504.074 160.1 502.193 161.682 499.615 161.682L499 161.629L497.787 161.4V158.764L498.666 158.834C499.768 158.834 500.623 158.611 501.232 158.166C501.854 157.721 502.363 156.906 502.762 155.723L503.482 153.789L496.697 134.98H500.248L504.994 149.236ZM523.205 151.697C524.365 151.697 525.379 151.346 526.246 150.643C527.113 149.939 527.594 149.061 527.688 148.006H530.764C530.705 149.096 530.33 150.133 529.639 151.117C528.947 152.102 528.021 152.887 526.861 153.473C525.713 154.059 524.494 154.352 523.205 154.352C520.615 154.352 518.553 153.49 517.018 151.768C515.494 150.033 514.732 147.666 514.732 144.666V144.121C514.732 142.27 515.072 140.623 515.752 139.182C516.432 137.74 517.404 136.621 518.67 135.824C519.947 135.027 521.453 134.629 523.188 134.629C525.32 134.629 527.09 135.268 528.496 136.545C529.914 137.822 530.67 139.48 530.764 141.52H527.688C527.594 140.289 527.125 139.281 526.281 138.496C525.449 137.699 524.418 137.301 523.188 137.301C521.535 137.301 520.252 137.898 519.338 139.094C518.436 140.277 517.984 141.994 517.984 144.244V144.859C517.984 147.051 518.436 148.738 519.338 149.922C520.24 151.105 521.529 151.697 523.205 151.697ZM537.953 154H534.701V127H537.953V154ZM551.066 154.352C548.488 154.352 546.391 153.508 544.773 151.82C543.156 150.121 542.348 147.854 542.348 145.018V144.42C542.348 142.533 542.705 140.852 543.42 139.375C544.146 137.887 545.154 136.727 546.443 135.895C547.744 135.051 549.15 134.629 550.662 134.629C553.135 134.629 555.057 135.443 556.428 137.072C557.799 138.701 558.484 141.033 558.484 144.068V145.422H545.6C545.646 147.297 546.191 148.814 547.234 149.975C548.289 151.123 549.625 151.697 551.242 151.697C552.391 151.697 553.363 151.463 554.16 150.994C554.957 150.525 555.654 149.904 556.252 149.131L558.238 150.678C556.645 153.127 554.254 154.352 551.066 154.352ZM550.662 137.301C549.35 137.301 548.248 137.781 547.357 138.742C546.467 139.691 545.916 141.027 545.705 142.75H555.232V142.504C555.139 140.852 554.693 139.574 553.896 138.672C553.1 137.758 552.021 137.301 550.662 137.301Z" fill="black"/>
<rect x="164.5" y="171.5" width="62" height="165" fill="#F48FB1" stroke="black"/>
<rect x="266.5" y="171.5" width="62" height="165" fill="#F48FB1" stroke="black"/>
<rect x="368.5" y="171.5" width="62" height="165" fill="#F48FB1" stroke="black"/>
<rect x="470.5" y="171.5" width="62" height="165" fill="#F48FB1" stroke="black"/>
<rect x="572.5" y="171.5" width="62" height="165" fill="#F48FB1" stroke="black"/>
<path d="M194.098 304.807V308.814H201V311.076H183.938V305.428C183.938 303.506 184.375 302.029 185.25 300.998C186.125 299.959 187.398 299.439 189.07 299.439C190.133 299.439 191.059 299.728 191.848 300.307C192.637 300.877 193.227 301.674 193.617 302.697L200.859 298.689H201V301.103L194.098 304.807ZM192.258 308.814V305.357C192.258 304.24 191.969 303.353 191.391 302.697C190.812 302.033 190.039 301.701 189.07 301.701C188.016 301.701 187.207 302.017 186.645 302.65C186.082 303.275 185.797 304.182 185.789 305.369V308.814H192.258ZM194.543 297.189C193.301 297.189 192.184 296.947 191.191 296.463C190.199 295.971 189.434 295.291 188.895 294.424C188.355 293.549 188.086 292.553 188.086 291.435C188.086 289.709 188.684 288.314 189.879 287.252C191.074 286.182 192.664 285.646 194.648 285.646H194.801C196.035 285.646 197.145 285.885 198.129 286.361C199.105 286.83 199.867 287.506 200.414 288.389C200.961 289.264 201.234 290.271 201.234 291.412C201.234 293.131 200.637 294.525 199.441 295.596C198.246 296.658 196.664 297.189 194.695 297.189H194.543ZM194.801 295.01C196.207 295.01 197.336 294.685 198.188 294.037C199.039 293.381 199.465 292.506 199.465 291.412C199.465 290.31 199.035 289.435 198.176 288.787C197.309 288.139 196.098 287.814 194.543 287.814C193.152 287.814 192.027 288.146 191.168 288.81C190.301 289.467 189.867 290.342 189.867 291.435C189.867 292.506 190.293 293.369 191.145 294.025C191.996 294.682 193.215 295.01 194.801 295.01ZM194.543 283.502C193.301 283.502 192.184 283.26 191.191 282.775C190.199 282.283 189.434 281.603 188.895 280.736C188.355 279.861 188.086 278.865 188.086 277.748C188.086 276.021 188.684 274.627 189.879 273.564C191.074 272.494 192.664 271.959 194.648 271.959H194.801C196.035 271.959 197.145 272.197 198.129 272.674C199.105 273.142 199.867 273.818 200.414 274.701C200.961 275.576 201.234 276.584 201.234 277.724C201.234 279.443 200.637 280.838 199.441 281.908C198.246 282.971 196.664 283.502 194.695 283.502H194.543ZM194.801 281.322C196.207 281.322 197.336 280.998 198.188 280.349C199.039 279.693 199.465 278.818 199.465 277.724C199.465 276.623 199.035 275.748 198.176 275.099C197.309 274.451 196.098 274.127 194.543 274.127C193.152 274.127 192.027 274.459 191.168 275.123C190.301 275.779 189.867 276.654 189.867 277.748C189.867 278.818 190.293 279.682 191.145 280.338C191.996 280.994 193.215 281.322 194.801 281.322ZM185.25 266.299H188.32V263.932H189.996V266.299H197.859C198.367 266.299 198.75 266.193 199.008 265.982C199.258 265.771 199.383 265.412 199.383 264.904C199.383 264.654 199.336 264.31 199.242 263.873H201C201.156 264.443 201.234 264.998 201.234 265.537C201.234 266.506 200.941 267.236 200.355 267.728C199.77 268.221 198.938 268.467 197.859 268.467H189.996V270.775H188.32V268.467H185.25V266.299ZM193.395 250.068C192.84 251.998 192.16 253.404 191.355 254.287C190.543 255.162 189.543 255.599 188.355 255.599C187.012 255.599 185.902 255.064 185.027 253.994C184.145 252.916 183.703 251.517 183.703 249.799C183.703 248.627 183.93 247.584 184.383 246.67C184.836 245.748 185.461 245.037 186.258 244.537C187.055 244.029 187.926 243.775 188.871 243.775V246.037C187.84 246.037 187.031 246.365 186.445 247.021C185.852 247.678 185.555 248.603 185.555 249.799C185.555 250.908 185.801 251.775 186.293 252.4C186.777 253.017 187.453 253.326 188.32 253.326C189.016 253.326 189.605 253.033 190.09 252.447C190.566 251.853 191.004 250.849 191.402 249.435C191.801 248.014 192.242 246.904 192.727 246.107C193.203 245.303 193.762 244.709 194.402 244.326C195.043 243.935 195.797 243.74 196.664 243.74C198.047 243.74 199.156 244.279 199.992 245.357C200.82 246.435 201.234 247.877 201.234 249.682C201.234 250.853 201.012 251.947 200.566 252.963C200.113 253.978 199.496 254.764 198.715 255.318C197.934 255.865 197.047 256.139 196.055 256.139V253.877C197.086 253.877 197.902 253.498 198.504 252.74C199.098 251.974 199.395 250.955 199.395 249.682C199.395 248.494 199.152 247.584 198.668 246.951C198.184 246.318 197.523 246.002 196.688 246.002C195.852 246.002 195.207 246.295 194.754 246.881C194.293 247.467 193.84 248.529 193.395 250.068ZM185.25 238.244H188.32V235.877H189.996V238.244H197.859C198.367 238.244 198.75 238.139 199.008 237.928C199.258 237.717 199.383 237.357 199.383 236.849C199.383 236.599 199.336 236.256 199.242 235.818H201C201.156 236.389 201.234 236.943 201.234 237.482C201.234 238.451 200.941 239.182 200.355 239.674C199.77 240.166 198.938 240.412 197.859 240.412H189.996V242.721H188.32V240.412H185.25V238.244ZM201 225.506C200.75 225.631 200.305 225.732 199.664 225.81C200.711 226.818 201.234 228.021 201.234 229.42C201.234 230.67 200.883 231.697 200.18 232.502C199.469 233.299 198.57 233.697 197.484 233.697C196.164 233.697 195.141 233.197 194.414 232.197C193.68 231.189 193.312 229.775 193.312 227.955V225.846H192.316C191.559 225.846 190.957 226.072 190.512 226.525C190.059 226.978 189.832 227.646 189.832 228.529C189.832 229.303 190.027 229.951 190.418 230.474C190.809 230.998 191.281 231.26 191.836 231.26V233.439C191.203 233.439 190.594 233.217 190.008 232.771C189.414 232.318 188.945 231.709 188.602 230.943C188.258 230.17 188.086 229.322 188.086 228.4C188.086 226.939 188.453 225.795 189.188 224.967C189.914 224.139 190.918 223.709 192.199 223.678H198.035C199.199 223.678 200.125 223.529 200.812 223.232H201V225.506ZM199.348 229.103C199.348 228.424 199.172 227.779 198.82 227.17C198.469 226.56 198.012 226.119 197.449 225.846H194.848V227.545C194.848 230.201 195.625 231.529 197.18 231.529C197.859 231.529 198.391 231.303 198.773 230.849C199.156 230.396 199.348 229.814 199.348 229.103ZM194.555 220.795C192.578 220.795 191.008 220.338 189.844 219.424C188.672 218.51 188.086 217.299 188.086 215.791C188.086 214.244 188.633 213.037 189.727 212.17L188.32 212.064V210.084H200.695C202.336 210.084 203.629 210.572 204.574 211.549C205.52 212.517 205.992 213.822 205.992 215.463C205.992 216.377 205.797 217.271 205.406 218.146C205.016 219.021 204.48 219.689 203.801 220.15L202.5 219.025C203.648 218.096 204.223 216.959 204.223 215.615C204.223 214.56 203.926 213.74 203.332 213.154C202.738 212.56 201.902 212.264 200.824 212.264H199.734C200.734 213.131 201.234 214.314 201.234 215.814C201.234 217.299 200.637 218.502 199.441 219.424C198.246 220.338 196.617 220.795 194.555 220.795ZM194.801 218.615C196.23 218.615 197.355 218.322 198.176 217.736C198.988 217.15 199.395 216.33 199.395 215.275C199.395 213.908 198.773 212.904 197.531 212.264H191.742C190.531 212.928 189.926 213.924 189.926 215.252C189.926 216.307 190.336 217.131 191.156 217.724C191.977 218.318 193.191 218.615 194.801 218.615ZM201.234 201.541C201.234 203.26 200.672 204.658 199.547 205.736C198.414 206.814 196.902 207.353 195.012 207.353H194.613C193.355 207.353 192.234 207.115 191.25 206.639C190.258 206.154 189.484 205.482 188.93 204.623C188.367 203.756 188.086 202.818 188.086 201.81C188.086 200.162 188.629 198.881 189.715 197.967C190.801 197.053 192.355 196.596 194.379 196.596H195.281V205.185C196.531 205.154 197.543 204.791 198.316 204.096C199.082 203.392 199.465 202.502 199.465 201.424C199.465 200.658 199.309 200.01 198.996 199.478C198.684 198.947 198.27 198.482 197.754 198.084L198.785 196.76C200.418 197.822 201.234 199.416 201.234 201.541ZM189.867 201.81C189.867 202.685 190.188 203.42 190.828 204.014C191.461 204.607 192.352 204.974 193.5 205.115V198.764H193.336C192.234 198.826 191.383 199.123 190.781 199.654C190.172 200.185 189.867 200.904 189.867 201.81Z" fill="black"/>
<path d="M298.547 291.107V298.256L303 299.861V302.182L285.938 295.666V293.697L303 287.17V289.478L298.547 291.107ZM296.695 297.576V291.775L288.715 294.682L296.695 297.576ZM287.25 282.482H290.32V280.115H291.996V282.482H299.859C300.367 282.482 300.75 282.377 301.008 282.166C301.258 281.955 301.383 281.596 301.383 281.088C301.383 280.838 301.336 280.494 301.242 280.057H303C303.156 280.627 303.234 281.182 303.234 281.721C303.234 282.689 302.941 283.42 302.355 283.912C301.77 284.404 300.938 284.65 299.859 284.65H291.996V286.959H290.32V284.65H287.25V282.482ZM287.25 274.631H290.32V272.264H291.996V274.631H299.859C300.367 274.631 300.75 274.525 301.008 274.314C301.258 274.103 301.383 273.744 301.383 273.236C301.383 272.986 301.336 272.642 301.242 272.205H303C303.156 272.775 303.234 273.33 303.234 273.869C303.234 274.838 302.941 275.568 302.355 276.06C301.77 276.553 300.938 276.799 299.859 276.799H291.996V279.107H290.32V276.799H287.25V274.631ZM303 261.892C302.75 262.017 302.305 262.119 301.664 262.197C302.711 263.205 303.234 264.408 303.234 265.807C303.234 267.057 302.883 268.084 302.18 268.889C301.469 269.685 300.57 270.084 299.484 270.084C298.164 270.084 297.141 269.584 296.414 268.584C295.68 267.576 295.312 266.162 295.312 264.342V262.232H294.316C293.559 262.232 292.957 262.459 292.512 262.912C292.059 263.365 291.832 264.033 291.832 264.916C291.832 265.689 292.027 266.338 292.418 266.861C292.809 267.385 293.281 267.646 293.836 267.646V269.826C293.203 269.826 292.594 269.603 292.008 269.158C291.414 268.705 290.945 268.096 290.602 267.33C290.258 266.557 290.086 265.709 290.086 264.787C290.086 263.326 290.453 262.182 291.188 261.353C291.914 260.525 292.918 260.096 294.199 260.064H300.035C301.199 260.064 302.125 259.916 302.812 259.619H303V261.892ZM301.348 265.49C301.348 264.81 301.172 264.166 300.82 263.557C300.469 262.947 300.012 262.506 299.449 262.232H296.848V263.932C296.848 266.588 297.625 267.916 299.18 267.916C299.859 267.916 300.391 267.689 300.773 267.236C301.156 266.783 301.348 266.201 301.348 265.49ZM301.465 251.58C301.465 250.807 301.23 250.131 300.762 249.553C300.293 248.974 299.707 248.654 299.004 248.592V246.541C299.73 246.58 300.422 246.83 301.078 247.291C301.734 247.752 302.258 248.369 302.648 249.142C303.039 249.908 303.234 250.721 303.234 251.58C303.234 253.307 302.66 254.682 301.512 255.705C300.355 256.721 298.777 257.228 296.777 257.228H296.414C295.18 257.228 294.082 257.002 293.121 256.549C292.16 256.096 291.414 255.447 290.883 254.603C290.352 253.752 290.086 252.748 290.086 251.592C290.086 250.17 290.512 248.99 291.363 248.053C292.215 247.107 293.32 246.603 294.68 246.541V248.592C293.859 248.654 293.188 248.967 292.664 249.529C292.133 250.084 291.867 250.771 291.867 251.592C291.867 252.693 292.266 253.549 293.062 254.158C293.852 254.76 294.996 255.06 296.496 255.06H296.906C298.367 255.06 299.492 254.76 300.281 254.158C301.07 253.557 301.465 252.697 301.465 251.58ZM291.855 241.935C290.676 240.974 290.086 239.724 290.086 238.185C290.086 235.506 291.598 234.154 294.621 234.131H303V236.299H294.609C293.695 236.307 293.02 236.517 292.582 236.932C292.145 237.338 291.926 237.974 291.926 238.842C291.926 239.545 292.113 240.162 292.488 240.693C292.863 241.224 293.355 241.639 293.965 241.935H303V244.103H285V241.935H291.855ZM303.234 225.623C303.234 227.342 302.672 228.74 301.547 229.818C300.414 230.896 298.902 231.435 297.012 231.435H296.613C295.355 231.435 294.234 231.197 293.25 230.721C292.258 230.236 291.484 229.564 290.93 228.705C290.367 227.838 290.086 226.9 290.086 225.892C290.086 224.244 290.629 222.963 291.715 222.049C292.801 221.135 294.355 220.678 296.379 220.678H297.281V229.267C298.531 229.236 299.543 228.873 300.316 228.178C301.082 227.474 301.465 226.584 301.465 225.506C301.465 224.74 301.309 224.092 300.996 223.56C300.684 223.029 300.27 222.564 299.754 222.166L300.785 220.842C302.418 221.904 303.234 223.498 303.234 225.623ZM291.867 225.892C291.867 226.767 292.188 227.502 292.828 228.096C293.461 228.689 294.352 229.057 295.5 229.197V222.846H295.336C294.234 222.908 293.383 223.205 292.781 223.736C292.172 224.267 291.867 224.986 291.867 225.892ZM296.555 218.685C294.609 218.685 293.047 218.224 291.867 217.303C290.68 216.381 290.086 215.174 290.086 213.682C290.086 212.197 290.594 211.021 291.609 210.154H285V207.986H303V209.978L301.641 210.084C302.703 210.951 303.234 212.158 303.234 213.705C303.234 215.174 302.633 216.373 301.43 217.303C300.227 218.224 298.656 218.685 296.719 218.685H296.555ZM296.801 216.517C298.238 216.517 299.363 216.221 300.176 215.627C300.988 215.033 301.395 214.213 301.395 213.166C301.395 211.791 300.777 210.787 299.543 210.154H293.719C292.523 210.803 291.926 211.799 291.926 213.142C291.926 214.205 292.336 215.033 293.156 215.627C293.977 216.221 295.191 216.517 296.801 216.517Z" fill="black"/>
<path d="M405 286.736H387.938V281.158C387.938 279.307 388.32 277.916 389.086 276.986C389.852 276.049 390.984 275.58 392.484 275.58C393.281 275.58 393.988 275.807 394.605 276.26C395.215 276.713 395.688 277.33 396.023 278.111C396.281 277.189 396.773 276.463 397.5 275.932C398.219 275.392 399.078 275.123 400.078 275.123C401.609 275.123 402.812 275.619 403.688 276.611C404.562 277.603 405 279.006 405 280.818V286.736ZM397.02 284.486H403.16V280.771C403.16 279.724 402.891 278.9 402.352 278.299C401.805 277.689 401.055 277.385 400.102 277.385C398.047 277.385 397.02 278.502 397.02 280.736V284.486ZM395.215 284.486V281.088C395.215 280.103 394.969 279.318 394.477 278.732C393.984 278.139 393.316 277.842 392.473 277.842C391.535 277.842 390.855 278.115 390.434 278.662C390.004 279.209 389.789 280.041 389.789 281.158V284.486H395.215ZM398.543 272.697C397.301 272.697 396.184 272.455 395.191 271.971C394.199 271.478 393.434 270.799 392.895 269.932C392.355 269.057 392.086 268.06 392.086 266.943C392.086 265.217 392.684 263.822 393.879 262.76C395.074 261.689 396.664 261.154 398.648 261.154H398.801C400.035 261.154 401.145 261.392 402.129 261.869C403.105 262.338 403.867 263.014 404.414 263.896C404.961 264.771 405.234 265.779 405.234 266.92C405.234 268.639 404.637 270.033 403.441 271.103C402.246 272.166 400.664 272.697 398.695 272.697H398.543ZM398.801 270.517C400.207 270.517 401.336 270.193 402.188 269.545C403.039 268.889 403.465 268.014 403.465 266.92C403.465 265.818 403.035 264.943 402.176 264.295C401.309 263.646 400.098 263.322 398.543 263.322C397.152 263.322 396.027 263.654 395.168 264.318C394.301 264.974 393.867 265.849 393.867 266.943C393.867 268.014 394.293 268.877 395.145 269.533C395.996 270.189 397.215 270.517 398.801 270.517ZM403.746 250.607C404.738 251.451 405.234 252.689 405.234 254.322C405.234 255.674 404.844 256.705 404.062 257.416C403.273 258.119 402.109 258.474 400.57 258.482H392.32V256.314H400.512C402.434 256.314 403.395 255.533 403.395 253.971C403.395 252.314 402.777 251.213 401.543 250.666H392.32V248.498H405V250.56L403.746 250.607ZM392.32 243.142L393.914 243.072C392.695 242.103 392.086 240.838 392.086 239.275C392.086 236.596 393.598 235.244 396.621 235.221H405V237.389H396.609C395.695 237.396 395.02 237.607 394.582 238.021C394.145 238.428 393.926 239.064 393.926 239.932C393.926 240.635 394.113 241.252 394.488 241.783C394.863 242.314 395.355 242.728 395.965 243.025H405V245.193H392.32V243.142ZM398.555 232.478C396.609 232.478 395.047 232.017 393.867 231.096C392.68 230.174 392.086 228.967 392.086 227.474C392.086 225.99 392.594 224.814 393.609 223.947H387V221.779H405V223.771L403.641 223.877C404.703 224.744 405.234 225.951 405.234 227.498C405.234 228.967 404.633 230.166 403.43 231.096C402.227 232.017 400.656 232.478 398.719 232.478H398.555ZM398.801 230.31C400.238 230.31 401.363 230.014 402.176 229.42C402.988 228.826 403.395 228.006 403.395 226.959C403.395 225.584 402.777 224.58 401.543 223.947H395.719C394.523 224.596 393.926 225.592 393.926 226.935C393.926 227.998 394.336 228.826 395.156 229.42C395.977 230.014 397.191 230.31 398.801 230.31Z" fill="black"/>
<path d="M504.012 282.435L489.938 277.56V275.099L507 281.428V283.42L489.938 289.736V287.287L504.012 282.435ZM507 270.787V272.955H494.32V270.787H507ZM490.957 273.131C490.605 273.131 490.309 273.025 490.066 272.814C489.824 272.596 489.703 272.275 489.703 271.853C489.703 271.432 489.824 271.111 490.066 270.892C490.309 270.674 490.605 270.564 490.957 270.564C491.309 270.564 491.602 270.674 491.836 270.892C492.07 271.111 492.188 271.432 492.188 271.853C492.188 272.275 492.07 272.596 491.836 272.814C491.602 273.025 491.309 273.131 490.957 273.131ZM503.637 259.924C503.051 259.924 502.598 260.146 502.277 260.592C501.949 261.029 501.668 261.799 501.434 262.9C501.199 263.994 500.918 264.865 500.59 265.514C500.262 266.154 499.871 266.631 499.418 266.943C498.965 267.248 498.426 267.4 497.801 267.4C496.762 267.4 495.883 266.963 495.164 266.088C494.445 265.205 494.086 264.08 494.086 262.713C494.086 261.275 494.457 260.111 495.199 259.221C495.941 258.322 496.891 257.873 498.047 257.873V260.053C497.453 260.053 496.941 260.307 496.512 260.814C496.082 261.314 495.867 261.947 495.867 262.713C495.867 263.502 496.039 264.119 496.383 264.564C496.727 265.01 497.176 265.232 497.73 265.232C498.254 265.232 498.648 265.025 498.914 264.611C499.18 264.197 499.434 263.451 499.676 262.373C499.918 261.287 500.207 260.408 500.543 259.736C500.879 259.064 501.285 258.568 501.762 258.248C502.23 257.92 502.805 257.756 503.484 257.756C504.617 257.756 505.527 258.209 506.215 259.115C506.895 260.021 507.234 261.197 507.234 262.642C507.234 263.658 507.055 264.557 506.695 265.338C506.336 266.119 505.836 266.732 505.195 267.178C504.547 267.615 503.848 267.834 503.098 267.834V265.666C503.824 265.627 504.402 265.338 504.832 264.799C505.254 264.252 505.465 263.533 505.465 262.642C505.465 261.822 505.301 261.166 504.973 260.674C504.637 260.174 504.191 259.924 503.637 259.924ZM507 252.576V254.744H494.32V252.576H507ZM490.957 254.92C490.605 254.92 490.309 254.814 490.066 254.603C489.824 254.385 489.703 254.064 489.703 253.642C489.703 253.221 489.824 252.9 490.066 252.682C490.309 252.463 490.605 252.353 490.957 252.353C491.309 252.353 491.602 252.463 491.836 252.682C492.07 252.9 492.188 253.221 492.188 253.642C492.188 254.064 492.07 254.385 491.836 254.603C491.602 254.814 491.309 254.92 490.957 254.92ZM500.801 238.361C502.738 238.361 504.297 238.807 505.477 239.697C506.648 240.588 507.234 241.783 507.234 243.283C507.234 244.885 506.668 246.123 505.535 246.998L507 247.103V249.096H489V246.928H495.715C494.629 246.053 494.086 244.846 494.086 243.307C494.086 241.767 494.668 240.56 495.832 239.685C496.996 238.803 498.59 238.361 500.613 238.361H500.801ZM500.555 240.529C499.078 240.529 497.938 240.814 497.133 241.385C496.328 241.955 495.926 242.775 495.926 243.846C495.926 245.275 496.59 246.303 497.918 246.928H503.402C504.73 246.264 505.395 245.228 505.395 243.822C505.395 242.783 504.992 241.974 504.188 241.396C503.383 240.818 502.172 240.529 500.555 240.529ZM507 233.264V235.432H489V233.264H507ZM507.234 224.521C507.234 226.24 506.672 227.639 505.547 228.717C504.414 229.795 502.902 230.334 501.012 230.334H500.613C499.355 230.334 498.234 230.096 497.25 229.619C496.258 229.135 495.484 228.463 494.93 227.603C494.367 226.736 494.086 225.799 494.086 224.791C494.086 223.142 494.629 221.861 495.715 220.947C496.801 220.033 498.355 219.576 500.379 219.576H501.281V228.166C502.531 228.135 503.543 227.771 504.316 227.076C505.082 226.373 505.465 225.482 505.465 224.404C505.465 223.639 505.309 222.99 504.996 222.459C504.684 221.928 504.27 221.463 503.754 221.064L504.785 219.74C506.418 220.803 507.234 222.396 507.234 224.521ZM495.867 224.791C495.867 225.666 496.188 226.4 496.828 226.994C497.461 227.588 498.352 227.955 499.5 228.096V221.744H499.336C498.234 221.807 497.383 222.103 496.781 222.635C496.172 223.166 495.867 223.885 495.867 224.791Z" fill="black"/>
<path d="M601.465 288.564V295.724H609V297.974H591.938V287.404H593.789V295.724H599.625V288.564H601.465ZM602.543 285.881C601.301 285.881 600.184 285.639 599.191 285.154C598.199 284.662 597.434 283.982 596.895 283.115C596.355 282.24 596.086 281.244 596.086 280.127C596.086 278.4 596.684 277.006 597.879 275.943C599.074 274.873 600.664 274.338 602.648 274.338H602.801C604.035 274.338 605.145 274.576 606.129 275.053C607.105 275.521 607.867 276.197 608.414 277.08C608.961 277.955 609.234 278.963 609.234 280.103C609.234 281.822 608.637 283.217 607.441 284.287C606.246 285.349 604.664 285.881 602.695 285.881H602.543ZM602.801 283.701C604.207 283.701 605.336 283.377 606.188 282.728C607.039 282.072 607.465 281.197 607.465 280.103C607.465 279.002 607.035 278.127 606.176 277.478C605.309 276.83 604.098 276.506 602.543 276.506C601.152 276.506 600.027 276.838 599.168 277.502C598.301 278.158 597.867 279.033 597.867 280.127C597.867 281.197 598.293 282.06 599.145 282.717C599.996 283.373 601.215 283.701 602.801 283.701ZM607.465 266.533C607.465 265.76 607.23 265.084 606.762 264.506C606.293 263.928 605.707 263.607 605.004 263.545V261.494C605.73 261.533 606.422 261.783 607.078 262.244C607.734 262.705 608.258 263.322 608.648 264.096C609.039 264.861 609.234 265.674 609.234 266.533C609.234 268.26 608.66 269.635 607.512 270.658C606.355 271.674 604.777 272.182 602.777 272.182H602.414C601.18 272.182 600.082 271.955 599.121 271.502C598.16 271.049 597.414 270.4 596.883 269.557C596.352 268.705 596.086 267.701 596.086 266.545C596.086 265.123 596.512 263.943 597.363 263.006C598.215 262.06 599.32 261.557 600.68 261.494V263.545C599.859 263.607 599.188 263.92 598.664 264.482C598.133 265.037 597.867 265.724 597.867 266.545C597.867 267.646 598.266 268.502 599.062 269.111C599.852 269.713 600.996 270.014 602.496 270.014H602.906C604.367 270.014 605.492 269.713 606.281 269.111C607.07 268.51 607.465 267.65 607.465 266.533ZM607.746 251.228C608.738 252.072 609.234 253.31 609.234 254.943C609.234 256.295 608.844 257.326 608.062 258.037C607.273 258.74 606.109 259.096 604.57 259.103H596.32V256.935H604.512C606.434 256.935 607.395 256.154 607.395 254.592C607.395 252.935 606.777 251.834 605.543 251.287H596.32V249.119H609V251.182L607.746 251.228ZM605.637 238.432C605.051 238.432 604.598 238.654 604.277 239.099C603.949 239.537 603.668 240.307 603.434 241.408C603.199 242.502 602.918 243.373 602.59 244.021C602.262 244.662 601.871 245.139 601.418 245.451C600.965 245.756 600.426 245.908 599.801 245.908C598.762 245.908 597.883 245.471 597.164 244.596C596.445 243.713 596.086 242.588 596.086 241.221C596.086 239.783 596.457 238.619 597.199 237.728C597.941 236.83 598.891 236.381 600.047 236.381V238.56C599.453 238.56 598.941 238.814 598.512 239.322C598.082 239.822 597.867 240.455 597.867 241.221C597.867 242.01 598.039 242.627 598.383 243.072C598.727 243.517 599.176 243.74 599.73 243.74C600.254 243.74 600.648 243.533 600.914 243.119C601.18 242.705 601.434 241.959 601.676 240.881C601.918 239.795 602.207 238.916 602.543 238.244C602.879 237.572 603.285 237.076 603.762 236.756C604.23 236.428 604.805 236.264 605.484 236.264C606.617 236.264 607.527 236.717 608.215 237.623C608.895 238.529 609.234 239.705 609.234 241.15C609.234 242.166 609.055 243.064 608.695 243.846C608.336 244.627 607.836 245.24 607.195 245.685C606.547 246.123 605.848 246.342 605.098 246.342V244.174C605.824 244.135 606.402 243.846 606.832 243.307C607.254 242.76 607.465 242.041 607.465 241.15C607.465 240.33 607.301 239.674 606.973 239.182C606.637 238.682 606.191 238.432 605.637 238.432ZM609.234 228.178C609.234 229.896 608.672 231.295 607.547 232.373C606.414 233.451 604.902 233.99 603.012 233.99H602.613C601.355 233.99 600.234 233.752 599.25 233.275C598.258 232.791 597.484 232.119 596.93 231.26C596.367 230.392 596.086 229.455 596.086 228.447C596.086 226.799 596.629 225.517 597.715 224.603C598.801 223.689 600.355 223.232 602.379 223.232H603.281V231.822C604.531 231.791 605.543 231.428 606.316 230.732C607.082 230.029 607.465 229.139 607.465 228.06C607.465 227.295 607.309 226.646 606.996 226.115C606.684 225.584 606.27 225.119 605.754 224.721L606.785 223.396C608.418 224.459 609.234 226.053 609.234 228.178ZM597.867 228.447C597.867 229.322 598.188 230.057 598.828 230.65C599.461 231.244 600.352 231.611 601.5 231.752V225.4H601.336C600.234 225.463 599.383 225.76 598.781 226.291C598.172 226.822 597.867 227.541 597.867 228.447ZM602.555 221.24C600.609 221.24 599.047 220.779 597.867 219.857C596.68 218.935 596.086 217.728 596.086 216.236C596.086 214.752 596.594 213.576 597.609 212.709H591V210.541H609V212.533L607.641 212.639C608.703 213.506 609.234 214.713 609.234 216.26C609.234 217.728 608.633 218.928 607.43 219.857C606.227 220.779 604.656 221.24 602.719 221.24H602.555ZM602.801 219.072C604.238 219.072 605.363 218.775 606.176 218.182C606.988 217.588 607.395 216.767 607.395 215.721C607.395 214.346 606.777 213.342 605.543 212.709H599.719C598.523 213.357 597.926 214.353 597.926 215.697C597.926 216.76 598.336 217.588 599.156 218.182C599.977 218.775 601.191 219.072 602.801 219.072Z" fill="black"/>
<path d="M399.707 402.293C399.317 401.902 398.683 401.902 398.293 402.293L391.929 408.657C391.538 409.047 391.538 409.681 391.929 410.071C392.319 410.462 392.953 410.462 393.343 410.071L399 404.414L404.657 410.071C405.047 410.462 405.681 410.462 406.071 410.071C406.462 409.681 406.462 409.047 406.071 408.657L399.707 402.293ZM400 456L400 403L398 403L398 456L400 456Z" fill="black"/>
</svg>
